<?xml version="1.0" encoding="utf-8"?>
<!-- Generator: Adobe Illustrator 16.0.0, SVG Export Plug-In . SVG Version: 6.00 Build 0)  -->
<!DOCTYPE svg PUBLIC "-//W3C//DTD SVG 1.1//EN" "http://www.w3.org/Graphics/SVG/1.1/DTD/svg11.dtd">
<svg version="1.1" xmlns="http://www.w3.org/2000/svg" xmlns:xlink="http://www.w3.org/1999/xlink" x="0px" y="0px" width="43.61px"
	 height="61.823px" viewBox="376.546 515.556 43.61 61.823" enable-background="new 376.546 515.556 43.61 61.823"
	 xml:space="preserve">
<g id="map">
	<title>Grey Filled Map of Ireland</title>
	<g>
		<title>Layer 1</title>
		<g id="layer2">
			<path id="path1440" fill="#9E9E9E" fill-opacity="0.75" d="M412.851,516.617l0.165-0.116l0.219,0.039l0.209,0.039l0.044-0.068
				l0.131,0.077l0.096,0.174l-0.087,0.125l0.062,0.193l-0.035,0.135l-0.166,0.01l-0.053-0.135l0.062-0.145l-0.053-0.145l-0.131,0.01
				l-0.052-0.068l-0.123,0.01l-0.104,0.067l-0.175-0.038L412.851,516.617z M382.43,573.993l0.245-0.067l0.262-0.01l0.052,0.106
				l0.105-0.029l0.122-0.087l0.14-0.058l0.035,0.116l-0.174,0.163l-0.175,0.136l-0.288,0.028l-0.184,0.02l-0.14,0.097l-0.218-0.067
				l-0.052-0.164l0.07-0.087L382.43,573.993z M379.724,574.341h0.279v0.135l-0.209,0.154l-0.157,0.135l-0.227,0.02l-0.035-0.097
				l0.14-0.212L379.724,574.341z M378.571,569.306l0.192,0.077l0.218-0.029l0.043,0.106l-0.14,0.115l-0.087,0.097l-0.166,0.02
				l-0.114,0.135h-0.174h-0.279l-0.114,0.135l-0.043-0.096l0.079-0.203l0.122-0.106l0.166-0.019l0.14-0.136L378.571,569.306z
				 M377.114,566.373l0.157,0.028l-0.018,0.154l-0.035,0.146l-0.105,0.105h-0.131l-0.087,0.067l-0.148,0.116l-0.166-0.029
				l-0.035-0.115l0.157-0.136l0.166-0.048l0.157-0.077L377.114,566.373z M383.669,550.263l0.209,0.087l0.131-0.019l0.174,0.173
				l0.114,0.077l0.14-0.096l0.209,0.039l0.174,0.077l0.035,0.193l-0.035,0.097l0.114,0.096l0.122-0.077l0.087-0.058l0.104,0.125
				l-0.043,0.145l-0.105,0.125l-0.235-0.019l-0.245-0.174l-0.262-0.222l-0.166-0.154l-0.209-0.067l-0.174-0.039l-0.114-0.097
				l-0.227-0.048l-0.043-0.087l0.113-0.096L383.669,550.263z M385.485,551.228l0.14-0.058l0.105,0.058v0.174l-0.105,0.125
				l-0.14,0.116l-0.192-0.048l-0.044-0.135l0.096-0.125L385.485,551.228z M385.982,551.672l0.192,0.058l-0.026,0.154l-0.044,0.164
				l-0.113,0.01l-0.079-0.087l-0.114-0.067v-0.154L385.982,551.672z M384.76,547.919l-0.174,0.077l0.009,0.135l0.192,0.097
				l0.236-0.087l0.061-0.106l-0.026-0.077L384.76,547.919z M384.909,548.305l0.114,0.154v0.183l0.096,0.077l-0.104,0.125
				l0.035,0.154l-0.052,0.097l-0.113,0.058l-0.236-0.058l-0.096-0.048l-0.07-0.154l0.043-0.154l-0.061-0.097l0.131-0.164
				l0.174-0.077L384.909,548.305z M384.307,548.797l-0.123,0.164l0.096,0.097h0.113l0.018-0.145L384.307,548.797z M383.233,547.833
				l0.043,0.212l0.14,0.125l0.07-0.086l-0.061-0.135l-0.061-0.212L383.233,547.833z M380.021,542.672l0.009,0.202l0.122,0.125
				l0.332-0.019l0.174-0.058l0.018-0.154l0.035-0.116l-0.087-0.087l-0.166,0.048l-0.035,0.097h-0.244L380.021,542.672z
				 M381.138,541.553l0.009,0.174l0.14-0.01l0.14-0.087l0.026-0.154l-0.079-0.058l-0.122,0.048L381.138,541.553z M381.792,539.99
				l0.07,0.25l0.306-0.009l0.227-0.029l0.148-0.048l0.14-0.193l-0.131-0.106l-0.104-0.154l-0.122-0.01l-0.114,0.125l-0.192,0.067
				L381.792,539.99z M379.724,542.942l-0.087,0.154l0.166,0.087l0.114-0.048l-0.044-0.164L379.724,542.942z M380.082,537.145
				l0.052,0.193l0.227-0.02l0.306,0.145l0.087,0.086l0.157-0.086l0.393,0.009l0.297-0.067l0.209,0.048l0.079,0.164l-0.035,0.231
				l-0.087,0.173l0.018,0.116l0.07,0.116l0.218,0.077l0.192,0.116l0.07,0.212l0.096,0.154l0.166,0.116l0.157-0.164l0.008-0.184
				v-0.25l0.131-0.145l-0.044-0.28l0.096-0.173l-0.096-0.174l-0.14,0.125l-0.07-0.067l0.026-0.077l0.061-0.212v-0.154l0.104-0.077
				l-0.026-0.231l-0.123-0.125l-0.061-0.212l-0.131,0.048l-0.052,0.097l-0.201,0.048l-0.123-0.019l-0.131-0.116l-0.131-0.087
				l-0.104-0.01l-0.096,0.106l-0.061,0.125l-0.061,0.154l-0.166,0.029l-0.131-0.106l-0.192-0.086l-0.262-0.02l-0.07,0.058
				l-0.043,0.173l-0.105,0.145l-0.262,0.067L380.082,537.145z M394.484,521.344l0.061-0.106l0.087-0.097l0.157,0.212l0.157,0.058
				l0.052,0.087l-0.018,0.231l0.07,0.087l-0.043,0.135l-0.131,0.125l-0.183-0.009l-0.079-0.106l-0.174-0.067l-0.044-0.097
				l0.131-0.154l-0.043-0.164V521.344z M396.999,517.234l0.253,0.135l0.148,0.135l-0.008,0.135l-0.192-0.02l-0.122-0.096
				l-0.14-0.077l-0.052-0.135L396.999,517.234z M385.677,577.09l-0.157,0.154l0.044,0.135h0.122l0.096-0.077h0.183l0.079-0.125
				l0.087-0.039l0.052-0.192l-0.14-0.106l-0.131,0.164h-0.148L385.677,577.09z M386.489,576.463l-0.035,0.192l-0.104,0.059
				l0.043,0.105l0.157-0.028l0.113-0.087l0.044-0.087l0.026-0.135l-0.104-0.049L386.489,576.463z M385.921,572.99l-0.262,0.212
				l-0.14,0.058l0.157,0.155l0.192-0.077l0.14-0.174l0.052-0.193L385.921,572.99z M414.015,517.788l0.309,0.137l0.247,0.218
				l0.21,0.313l0.11,0.259l0.013,0.287l-0.062,0.123l0.012,0.437l-0.062,0.259l-0.049,0.287l0.012,0.246l0.136,0.041l0.062-0.137
				l0.223-0.014l0.111,0.014l0.186,0.15l0.049,0.313l-0.037,0.287l-0.123,0.273l-0.074,0.15l0.16,0.068l0.173,0.123l0.136,0.014
				h0.087l0.125,0.23l0.209,0.328l0.087,0.203l0.009,0.184l0.166,0.096l0.148,0.154l0.062,0.241l0.218,0.231l-0.044,0.29
				l-0.017,0.27l0.191,0.231l0.245,0.048l0.244,0.222l0.148,0.145v-0.145l-0.201-0.26l-0.271-0.27l-0.2-0.222l0.034-0.135
				l0.114-0.067l0.191-0.02l0.219,0.106l0.183,0.251l0.14,0.27l0.044,0.396l0.053,0.28l-0.062,0.251l-0.113,0.231l-0.184,0.164
				l-0.122,0.125l-0.341,0.009l-0.14,0.184l-0.235,0.135l-0.288,0.231l-0.2,0.318l-0.114,0.261l-0.113,0.25l0.113,0.231l0.026,0.232
				l0.026,0.164l0.131-0.038l0.044-0.232l0.122-0.25l0.192-0.261l0.244-0.222l0.253-0.154l0.235-0.135l0.279,0.02l0.228,0.096
				l0.191-0.048l0.184-0.106l0.228-0.067l0.174-0.02l0.148,0.039l0.113,0.222l0.21,0.145l0.078,0.28l0.018,0.27l0.105,0.261
				l0.113,0.202l0.157,0.174l0.14,0.222l-0.07,0.232l0.053,0.299l0.035,0.251l0.078,0.203l0.148,0.135l0.131,0.058v0.106
				l-0.069,0.106l0.025,0.261l-0.087,0.135l-0.026,0.135l-0.104,0.106l-0.053,0.116l0.026,0.097l0.122,0.116l-0.009,0.25
				l-0.069,0.203l-0.122,0.087l-0.097,0.145l0.079,0.077l0.061,0.116l-0.018,0.086l-0.113,0.02v0.125l-0.018,0.096l-0.052,0.077
				l-0.122-0.01l-0.097-0.164l-0.035-0.145l-0.052-0.096v-0.164l-0.079-0.096l-0.122-0.145l-0.113-0.106v-0.145l-0.087-0.077
				l0.018-0.068l0.043-0.125l0.113-0.173l0.114-0.154l0.034-0.203l-0.034-0.261v-0.231l-0.044-0.173l-0.018-0.174l-0.096-0.116
				l-0.026-0.145l-0.113-0.048l-0.088-0.02l-0.034-0.086l-0.097-0.125l-0.122-0.135l-0.14-0.125l-0.157-0.096l-0.166-0.116
				l-0.078-0.039l-0.122,0.039v0.173l0.018,0.135l-0.044,0.154v0.067l0.096,0.125l0.097,0.135l0.122,0.048l0.052,0.048l-0.078,0.067
				l-0.113,0.039v0.086l0.096,0.087l0.104-0.01l0.097,0.077l0.018,0.203l-0.018,0.077l0.034,0.097l0.079,0.116l0.087,0.145
				l-0.052,0.068l0.018,0.289l-0.026,0.184l-0.044,0.086l0.035,0.174l-0.113,0.203l-0.131,0.154l-0.184,0.231l-0.088,0.097
				l-0.061,0.087v0.135l0.113-0.02l0.062-0.164l0.174-0.125l0.131-0.01l0.14-0.058l0.14-0.077l0.123-0.116l0.061-0.077h0.104
				l0.062,0.125l0.113,0.097l0.122,0.203l0.009,0.212l0.018,0.231l0.088,0.145l-0.088,0.164l-0.078,0.222l-0.105,0.231l-0.104,0.145
				l-0.087,0.106l-0.088,0.145l-0.069,0.048l-0.131-0.02l-0.044,0.145l-0.044,0.116l-0.043,0.145l-0.079,0.039l-0.096-0.116
				l-0.131-0.097l-0.104-0.086h-0.166l-0.113-0.048h-0.131l-0.114,0.039l-0.087,0.077l-0.314-0.019l-0.175,0.038l-0.191,0.212
				l-0.14,0.145l-0.044,0.192l0.009,0.116l0.096,0.154l0.062,0.27l-0.079,0.203l-0.025,0.241l-0.079,0.299l-0.087,0.27l-0.105,0.241
				l-0.34,0.29l-0.244,0.241l-0.175,0.029l-0.148,0.203l-0.131,0.106l-0.148,0.154l-0.271,0.029l-0.201-0.106l-0.096-0.096
				l0.044-0.077l0.096-0.039l0.14-0.01l0.018-0.087l-0.079-0.058l-0.174-0.058l-0.157-0.039h-0.297l-0.175-0.039l-0.035-0.154
				l-0.122-0.193h-0.349l-0.114,0.067l0.044,0.106l0.113,0.164l0.219,0.077l0.018,0.174l0.131,0.125l0.113-0.068h0.122l0.201,0.164
				l0.018,0.125l0.2,0.241l0.053,0.183L414.578,537l-0.165,0.125l-0.245,0.067l-0.279-0.039l-0.262-0.145l-0.288-0.135l-0.227-0.058
				l-0.192-0.125l-0.184-0.01h-0.113l-0.018,0.097l0.166,0.106l-0.035,0.125l-0.104,0.164l-0.087,0.328l-0.07,0.222l-0.018,0.299
				l0.044,0.28l0.096,0.29l0.175,0.241l0.166,0.106l0.288,0.067l0.288,0.058l0.131,0.029l0.035,0.174l-0.07,0.135l-0.061,0.155
				l0.025,0.241l0.062,0.193l0.184,0.077l0.034,0.145l-0.113,0.106l-0.078,0.193l-0.018,0.28l-0.018,0.251l0.026,0.27l0.096,0.116
				l-0.009,0.28l0.044,0.328l0.131,0.386l0.218,0.27l0.254,0.347l0.297,0.29l0.235,0.048l0.148,0.231l0.069,0.251l0.053,0.241
				l-0.044,0.241l-0.209,0.26l0.061,0.154l-0.008,0.164l-0.123,0.145l-0.122,0.212l-0.018,0.202l0.079,0.241l0.078,0.328
				l0.009,0.261l0.201,0.086l0.244-0.029l0.122,0.135l-0.061,0.222l-0.026,0.135h-0.148l-0.148-0.164l-0.184-0.164l-0.175-0.058
				l-0.209,0.135l-0.131,0.212l-0.131,0.086l-0.236,0.087l-0.078,0.087l0.122,0.077l0.104,0.174l0.122,0.125l0.088,0.212
				l0.122,0.174l0.201,0.116h0.209l0.096,0.116l0.131,0.106l0.026,0.135l-0.078,0.077l-0.079,0.125l0.053,0.26l0.078,0.174
				l0.044,0.222l0.062,0.203l0.122,0.222l-0.018,0.241l0.053,0.203l0.14,0.241l0.148,0.309l0.061,0.212l0.009,0.347l-0.009,0.434
				l-0.043,0.318l-0.07,0.251l0.009,0.279l0.131,0.271l0.166,0.202l0.175,0.077l0.025,0.222l-0.148,0.135l-0.104,0.367l-0.113,0.318
				l-0.192,0.29l-0.018,0.434l-0.209,0.173l-0.219,0.203l-0.078,0.261l-0.087,0.183l-0.114,0.26l0.009,0.376l0.148,0.367
				l-0.131,0.25l-0.235,0.347l-0.192,0.367l-0.148,0.396l0.009,0.579l0.079,0.251l0.131,0.396l0.035,0.29l-0.123,0.318l-0.157,0.396
				l-0.235,0.415l-0.271,0.444l-0.271,0.357l-0.253,0.453l-0.088,0.28l0.018,0.521l0.035,0.184l-0.078,0.077l-0.097-0.145
				l-0.166-0.059l-0.14-0.028l-0.122,0.028l-0.087,0.164l-0.026,0.145l-0.026,0.271l0.262,0.279l0.148,0.068l0.079-0.251
				l0.113-0.193l0.035,0.174l-0.07,0.202l0.009,0.251l0.096,0.164l0.088,0.184l0.166,0.097l0.157,0.125l0.043,0.241l-0.061,0.184
				l-0.122,0.125l-0.079,0.164l0.018,0.251l-0.14,0.184l-0.201,0.019l-0.104-0.067l0.009-0.154l0.113-0.077l0.009-0.097
				l-0.052-0.048l-0.131,0.067l-0.184,0.097l-0.192,0.067l-0.148-0.039l0.079-0.125v-0.077l-0.123-0.058l-0.147,0.087l-0.018,0.154
				l-0.201,0.038l-0.262,0.097l-0.192,0.135l-0.157,0.077l-0.191-0.105l-0.148-0.164l-0.201-0.154l-0.375-0.136l-0.358-0.086
				l-0.235,0.105l-0.227,0.067l-0.14-0.067l0.018-0.097l0.104-0.087l0.122-0.163l0.078-0.174l0.053-0.184l-0.062-0.087l-0.096,0.145
				l-0.113,0.106l-0.087,0.174l-0.184,0.067l-0.088-0.067l-0.069,0.183l0.053,0.116h0.14l0.061,0.125l-0.104,0.116l-0.044,0.077
				l0.07,0.058l0.009,0.126l-0.07,0.154l-0.148,0.067l-0.218,0.067l-0.14,0.154l-0.105,0.116l-0.061,0.164l-0.131,0.145
				l-0.097,0.087l-0.122-0.029l-0.018-0.154l0.07-0.145l0.148-0.126l0.14-0.105l0.009-0.223l-0.044-0.125l-0.078-0.202l0.018-0.251
				l-0.105-0.135l-0.131-0.184l-0.14-0.135l-0.122-0.164l-0.044-0.241l-0.017-0.164l-0.07-0.039l-0.044,0.154v0.193l0.044,0.154
				l0.113,0.135l0.026,0.212l-0.018,0.213l-0.061,0.164l-0.035,0.212l0.148,0.029l0.096,0.01l0.035,0.105l-0.096,0.049l-0.105,0.173
				l-0.096,0.164l-0.062,0.174l-0.14,0.077l-0.288,0.01l-0.279,0.029l-0.183,0.028l-0.044-0.125l0.157-0.135l0.078-0.154
				l-0.069-0.146l-0.21-0.058l-0.122,0.077l0.07,0.106l0.087,0.077l-0.087,0.087l-0.157-0.049l-0.148-0.067l-0.097,0.203
				l-0.113,0.145l-0.183,0.125l-0.314-0.02l-0.332-0.145l-0.306,0.087l-0.34,0.058l-0.131-0.067l-0.192,0.067l-0.184,0.059
				l-0.271,0.019l-0.34,0.174l-0.245,0.174l-0.209,0.077l-0.184,0.067l-0.069,0.154l-0.123,0.106l-0.122-0.184l-0.131-0.097
				l-0.14,0.136l-0.052,0.087l0.069,0.154l0.088,0.096l0.078,0.116l0.227-0.029l0.062-0.048l0.087,0.048l0.07,0.126l-0.105,0.145
				l-0.174,0.154l-0.131,0.145l0.052,0.261l-0.104,0.145l-0.271,0.164l-0.323,0.125l-0.357,0.029l-0.131,0.116l-0.088,0.202
				l0.044,0.116l-0.096,0.125h-0.263l-0.147-0.116l-0.123-0.058l-0.174,0.126l-0.175-0.039l-0.062-0.106h-0.157l-0.087,0.164
				l-0.087,0.28l-0.114,0.222h-0.2L399.739,570l0.14,0.067l0.087,0.087l0.079,0.115l-0.018,0.136l-0.314,0.048l-0.472,0.048
				l-0.191,0.126l-0.21,0.087l-0.078,0.222l0.157,0.184l-0.009,0.145l-0.235,0.028l-0.228,0.126l-0.271,0.02h-0.235l-0.192,0.115
				l-0.14,0.135h-0.14l-0.131-0.115l-0.14,0.115l-0.314-0.028l-0.079-0.145l-0.079-0.136l0.044-0.174l0.192-0.145l0.14-0.174
				l0.209-0.076l0.096-0.155l0.018-0.115l0.088-0.106v-0.135l-0.131,0.01l-0.253,0.087l-0.245-0.039l-0.14,0.058l-0.174,0.126
				l-0.175,0.01l-0.209-0.106l-0.148-0.125l-0.227-0.059l-0.201-0.028l-0.035,0.183l-0.123,0.078l0.131,0.058l0.219,0.019h0.296
				l0.123,0.126v0.212l0.087,0.106l0.096,0.097l0.061,0.212l0.113,0.145l-0.052,0.241l-0.244,0.193l0.104,0.115l0.035,0.222
				l-0.148,0.154l-0.009,0.184l-0.192,0.067l-0.053,0.193l-0.384,0.067l-0.096,0.193l-0.227-0.049l-0.104,0.135l-0.026,0.136
				l-0.166-0.039l-0.052-0.048l-0.043,0.125l-0.113,0.116l-0.14,0.028l-0.009-0.212l-0.07-0.154l-0.14-0.106l-0.052,0.097
				l0.131,0.097l-0.008,0.125l-0.192,0.203l-0.009,0.174l-0.104,0.125l0.052,0.251l0.035,0.212l0.026,0.154l-0.018,0.116
				l-0.157-0.106l-0.07-0.231l-0.105-0.135l-0.279-0.067l-0.393,0.028l-0.192,0.097l-0.157,0.145l0.113,0.145l-0.026,0.174
				l-0.104,0.039l0.009,0.183l0.061,0.039L393,575.093l-0.148,0.067l-0.201-0.058l-0.087-0.077l-0.079,0.106l-0.113,0.067
				l-0.061-0.193l0.043-0.135l-0.104-0.01l-0.053,0.077l-0.174-0.038l-0.123-0.039l-0.061-0.058l-0.122,0.01l-0.087,0.087
				l-0.07-0.077l-0.104,0.019v0.174l-0.044,0.106l-0.113-0.02l-0.087,0.087l0.026,0.212l-0.096,0.097h-0.236l-0.078,0.097
				l-0.035,0.125l-0.087,0.049l-0.052-0.116l-0.052-0.192l-0.123-0.116l-0.131-0.154l-0.148-0.087l-0.078,0.106l-0.123,0.067
				l-0.087-0.097l-0.096,0.087l-0.131,0.029h-0.192l-0.131-0.145l-0.192-0.059l-0.087,0.049l-0.035,0.105l0.096,0.126l0.131,0.077
				l0.043,0.135l-0.192,0.154l-0.218,0.164h-0.14l-0.105-0.125l-0.096,0.086v0.097l0.017,0.106l-0.043,0.125l-0.175,0.029
				l-0.052,0.184l-0.131,0.105l-0.026-0.105l-0.166-0.029l-0.123-0.038v-0.106l-0.104-0.02h-0.166v0.145l-0.07,0.145l-0.218,0.146
				l-0.305,0.019l-0.184-0.087l0.026-0.202l-0.148-0.058l-0.087-0.077v-0.164l-0.122-0.106l0.052-0.135l0.105-0.087l0.061-0.145
				v-0.145l-0.192-0.097l-0.131-0.039l-0.096-0.115l-0.053,0.087l0.07,0.145l0.07,0.145l-0.104,0.097l-0.184,0.038l-0.148-0.01
				l-0.114,0.106l-0.131,0.125l-0.131-0.028l-0.096-0.135l-0.061-0.164l-0.026,0.173l-0.026,0.164l-0.079,0.068l-0.184,0.019
				l-0.096,0.126l-0.184,0.105l-0.157-0.105L384.595,576l-0.079-0.116l-0.096,0.067l-0.018,0.164l-0.192-0.01l-0.131,0.126
				l-0.061,0.174l-0.07,0.125l0.043,0.116l-0.096,0.067l-0.131-0.01l-0.14,0.097l-0.122,0.038l-0.061,0.058l-0.018-0.145h-0.131
				l-0.035,0.145l-0.157,0.039l-0.131-0.097l-0.017-0.115l0.087-0.077l-0.026-0.106l-0.14-0.058l-0.035-0.136l0.131-0.087
				l0.123,0.029l0.166-0.135l0.166-0.126l0.061-0.145l0.14-0.067l0.123-0.058l0.026-0.077l0.166-0.029l0.07,0.049l0.087-0.146
				l0.157-0.067l0.166-0.105l0.122-0.039v-0.125l0.035-0.154l0.104-0.02l0.07-0.049l0.009-0.096l0.035-0.077h0.14l0.096-0.164
				l0.07-0.126l0.184-0.048l0.096-0.01l0.026-0.115l-0.087-0.029l-0.227-0.01l-0.052,0.106l-0.148,0.077l-0.113,0.105h-0.122
				l-0.114,0.146h-0.157l-0.14,0.105l-0.288,0.174c0,0-0.148,0.029-0.148,0.067c0,0.039-0.236,0.039-0.236,0.039l-0.14,0.173
				l-0.201,0.097l-0.148,0.02l-0.227,0.029l-0.052-0.106l0.052-0.097h0.166l0.148-0.135l0.131-0.126l0.061-0.154l0.183-0.173
				l0.218-0.136l0.209-0.087l0.201-0.125l0.104-0.116l0.122-0.067l0.236-0.058l0.183-0.097l0.148-0.087l0.053-0.125l0.174-0.097
				h0.253l0.236-0.058l0.157-0.135l0.201-0.029l0.131-0.145l0.105-0.145v-0.154l0.061-0.145l-0.009-0.136l-0.105-0.105l-0.087,0.135
				l-0.087,0.077l-0.166-0.029l-0.131-0.077l-0.113-0.125v-0.136l-0.044-0.135l-0.096-0.135l-0.105-0.048l-0.035,0.125l-0.009,0.222
				l0.07,0.116v0.105l-0.079,0.059l-0.148,0.115l-0.14,0.01l-0.052,0.241l-0.218,0.058l-0.218,0.154l-0.253,0.067l-0.358-0.019
				l-0.113,0.038l-0.043,0.106l-0.209,0.01l-0.123,0.077h-0.227l-0.184,0.067l-0.14-0.058l-0.148,0.019l-0.157,0.087h-0.271
				l-0.244,0.116v0.202l-0.096,0.184l-0.175,0.048l-0.183-0.125l-0.131,0.145l-0.122,0.154l-0.148,0.067l-0.279,0.029l-0.123-0.154
				l-0.148-0.01l-0.114,0.077l-0.201,0.038l-0.148,0.078l-0.131,0.145l-0.079-0.154l0.131-0.116l0.009-0.241l0.166-0.029l0.174,0.02
				l0.114-0.097l0.157,0.01l0.148-0.096l0.035-0.213l-0.148-0.212l-0.175-0.029l-0.052-0.135l0.131-0.125l0.253,0.028h0.34
				l0.175-0.097l0.183-0.019l0.104-0.174l0.087-0.174l-0.113-0.154l-0.218,0.02l-0.043-0.126l0.131-0.105l0.192-0.136l0.201-0.086
				l0.175-0.174l0.183-0.106l0.122,0.01l-0.043,0.164l0.052,0.087l0.14-0.087l0.123-0.048l0.008-0.174l0.114-0.087l0.253,0.058
				l0.184-0.02l0.096-0.077l-0.131-0.067l-0.131-0.087v-0.077l0.166-0.105l0.183-0.174l0.183-0.193l0.062-0.154l0.14-0.145h0.235
				l0.349-0.058l0.201-0.116l0.236-0.125l0.201-0.126l0.114-0.154l-0.131-0.01l-0.166,0.106l-0.14,0.048l-0.157-0.086l-0.166,0.096
				l-0.175,0.059l-0.218,0.096l-0.209,0.136l-0.271,0.105l-0.157,0.136l-0.157,0.105l-0.122-0.058l-0.14,0.029l-0.018,0.222
				l-0.148,0.01l-0.122,0.105l-0.122-0.154l-0.053-0.125l-0.078,0.038l-0.07,0.155l-0.148,0.028l-0.227,0.087h-0.166l-0.096,0.193
				l-0.175,0.058l-0.052,0.125l-0.218-0.019l-0.131-0.049l-0.105,0.077l-0.14,0.184l-0.174,0.106l-0.201,0.067l-0.148,0.164
				l-0.096-0.077v-0.213l-0.253-0.028l-0.183-0.213l-0.227-0.01l-0.104-0.145l0.096-0.077l0.175,0.039l0.096-0.154l0.096-0.241
				l-0.009-0.241l-0.122-0.174l-0.087-0.145l-0.043-0.067h-0.14l-0.157,0.038l-0.157,0.203l-0.122,0.125l-0.018,0.202l-0.166,0.106
				l-0.148,0.174l-0.166,0.145l-0.183-0.029l-0.035-0.222l0.113-0.231l0.018-0.222l-0.043-0.212l-0.14-0.077l-0.184,0.058
				l-0.113-0.125l0.061-0.155l0.018-0.125l-0.096-0.135l-0.017-0.097l0.174,0.01h0.227l0.166-0.135l0.201-0.049l0.235-0.105
				l0.105-0.136l0.148,0.067l0.052-0.087l-0.026-0.145l-0.113-0.115l-0.087-0.222l-0.131-0.116l-0.148-0.077l0.096-0.087l0.07-0.087
				l0.244-0.02l0.026-0.212l-0.07-0.077l0.105-0.125l0.131-0.01l0.104-0.087l0.061,0.087l0.096,0.02l0.07-0.039l0.026-0.145
				l0.218-0.106l0.227-0.048l0.123-0.126l0.271-0.086l0.218-0.106l0.253-0.039l0.332-0.019l0.166-0.059l0.131-0.164l0.052-0.202
				l0.026-0.299l0.096,0.048l0.009,0.174l0.009,0.145l0.043,0.077l0.07-0.125l0.079,0.067l0.104,0.02l0.018-0.193l-0.079-0.164
				l0.052-0.154l0.123-0.058l0.035-0.135v-0.184l0.018-0.135l0.14,0.154l0.113,0.105h0.157l0.157-0.115l0.184-0.049l0.183,0.01
				l0.157,0.02l0.035-0.115l-0.14-0.136l-0.113-0.048l-0.175,0.077l-0.104,0.038l-0.079-0.135l-0.123-0.115l-0.332-0.01
				l-0.131,0.087l-0.209-0.049h-0.192l0.104,0.145l0.035,0.213l0.087,0.115l-0.062,0.164l-0.131-0.106l-0.087-0.222l-0.114-0.125
				l-0.14-0.058l-0.253,0.019l-0.245,0.059l-0.332,0.125l-0.271,0.087l-0.314,0.058l-0.192,0.077l-0.166-0.125l-0.096-0.174
				l-0.157,0.125l-0.131,0.029l-0.113-0.174l-0.122-0.105l-0.192,0.058l-0.018,0.125l0.113,0.029l0.166,0.067l-0.061,0.097
				l-0.157,0.038l-0.271-0.077l-0.105-0.115l-0.148-0.116l-0.122,0.029l-0.009,0.115l0.07,0.077l-0.07,0.097l-0.218,0.01
				l-0.157,0.097l-0.183,0.048l-0.262-0.087l-0.079-0.173l0.017-0.618l0.087-0.145l0.087-0.135l-0.104-0.145l-0.035-0.136
				l0.166-0.028l0.14-0.077l0.07-0.126l0.14,0.087v0.184l0.096,0.106l0.166,0.105l0.07-0.115l-0.079-0.184l0.105-0.077l0.052-0.115
				l-0.07-0.136l-0.061-0.125l0.113-0.116l0.035-0.096l0.174,0.009l0.218,0.029l0.087-0.145l0.087-0.212l0.183-0.126l0.192-0.174
				h0.218l0.131-0.028l0.114-0.136l0.157,0.029l0.148-0.116l0.096,0.078l0.009,0.173l-0.052,0.231l0.009,0.193l-0.079,0.077
				l0.043,0.154h0.14l0.157-0.116l0.271-0.019l0.253-0.116l0.148-0.164l0.105-0.202l0.087-0.154l-0.079-0.203l-0.131-0.125
				l0.096-0.097l0.122,0.058l0.104,0.039l0.07,0.192l-0.026,0.241l-0.07,0.193l0.052,0.154l0.244,0.174l0.245,0.184l0.297,0.048
				h0.462l0.192-0.184l0.174-0.192l0.052,0.173l0.105,0.106l0.122-0.048l0.148-0.077l0.157,0.097l0.113-0.059l0.026-0.183
				l-0.131-0.203l-0.218-0.029l-0.245-0.028l-0.201-0.126l-0.148,0.087l-0.104,0.106l-0.131-0.097l-0.044-0.192l-0.052-0.067v-0.097
				l0.131-0.059l0.14,0.01l0.131-0.135l0.114-0.261l0.017-0.347l-0.087-0.531l-0.123-0.125h-0.323l-0.279-0.125l-0.148-0.126
				l0.009-0.183l0.113-0.125l0.279-0.029l0.314,0.058l0.262-0.097l0.209-0.097l0.236-0.106l0.183,0.01l0.131-0.203l0.096-0.241
				l0.245-0.125h0.262l0.174,0.087l0.175,0.097l0.009-0.174l-0.131-0.173l-0.157,0.019l-0.07-0.019l-0.026-0.164l-0.026-0.261
				l0.079-0.173l0.069-0.125l-0.069-0.145l0.069-0.116l0.131-0.116l0.166-0.106l0.236-0.048l0.271,0.039l0.245,0.087l0.401-0.019
				l0.148,0.116l0.175-0.029l0.069-0.183l0.131-0.048l0.244,0.048l0.175-0.039l0.131-0.058l0.227,0.154l0.218,0.019l0.14,0.029
				h0.201l0.297-0.125l0.244-0.155l0.253-0.125l0.279-0.135l0.279-0.029l0.183-0.087l0.201-0.01l0.166-0.154l0.096,0.029
				l0.043,0.116l0.192-0.116l0.148,0.058l0.157,0.029l0.087-0.27l0.14-0.174l0.079-0.173l0.41-0.02l0.209-0.096l0.41-0.02
				l0.279,0.116l0.218,0.02l0.201-0.135l0.148-0.125l-0.349-0.077l-0.096,0.058l-0.148-0.106l-0.166-0.01l-0.131-0.097l-0.201-0.077
				h-0.157l-0.157,0.106l-0.236,0.077l-0.235,0.029l-0.079-0.154l0.113-0.125l0.157-0.183l-0.087-0.135l0.044-0.231l-0.096-0.116
				l-0.07-0.125l0.026-0.164l-0.07-0.135l-0.14,0.058l-0.236,0.097l-0.184,0.145l-0.104,0.096l0.061,0.106l0.052,0.116l-0.07,0.212
				l-0.192,0.29l-0.096,0.212l-0.236,0.318l-0.166,0.183l-0.148,0.212l-0.174,0.203l-0.236,0.029l-0.454,0.019l-0.201,0.164
				l-0.131,0.203l-0.192,0.135l-0.218-0.02l-0.14-0.145l0.07-0.145l0.183-0.077l0.218-0.164l0.061-0.164l-0.079-0.058l-0.235,0.135
				l-0.271,0.019l-0.148,0.106l-0.184,0.009l-0.104,0.125l0.017,0.154l-0.14-0.058l-0.043-0.058l-0.192-0.019l-0.227-0.106
				l-0.314-0.135l-0.279-0.087l-0.079-0.106l-0.07-0.222l0.009-0.241l-0.07-0.067l-0.166,0.048l-0.087,0.116l0.07,0.125l0.131,0.154
				l-0.079,0.164l-0.183,0.058l-0.061,0.097l-0.166,0.048l-0.358-0.029l-0.236,0.106l-0.131,0.154l-0.018,0.203l-0.087,0.116
				l-0.166-0.039l-0.096-0.01l-0.14,0.106l-0.166,0.116l-0.236,0.068l-0.192-0.068l-0.209-0.009l-0.166,0.135l-0.209,0.106
				l-0.297-0.086l-0.043-0.087l0.113-0.164l0.288-0.145l0.279-0.135l0.253-0.058l0.113-0.019l0.096-0.26l0.219-0.212l0.296-0.193
				l0.227-0.241l0.14-0.28l0.236-0.058l0.104-0.116l-0.14-0.077l0.14-0.087l0.148-0.087l0.14-0.106l0.018-0.202l0.043-0.106
				l0.14-0.145l0.166-0.116l0.192-0.048l0.175,0.097l0.07,0.067l0.043-0.106h0.148l0.096-0.106l0.07-0.154l-0.079-0.106l0.122-0.135
				l0.009-0.318l0.148-0.202l0.148-0.212l0.131-0.154l-0.018-0.212l0.079-0.135v-0.125l-0.035-0.135l0.122-0.145l0.306-0.212
				l0.148-0.222l0.113-0.145l0.061-0.145l-0.096-0.164l-0.113,0.077l-0.096,0.116l-0.175-0.097l-0.184-0.058l-0.069,0.01
				l-0.148,0.067l-0.096,0.058l-0.079-0.135l0.079-0.154l0.096-0.145l0.209-0.106l0.061-0.328l0.148-0.174
				c0,0,0.157-0.173,0.157-0.212s0.026-0.28,0.026-0.28l0.166-0.164l0.087-0.299l0.052-0.29l0.096-0.106l0.236-0.145l0.148-0.222
				l0.07-0.183l0.009-0.28l0.113-0.154l0.157-0.116l0.131,0.029l0.14,0.135l0.253,0.116l0.201,0.106l0.096,0.067l0.183-0.029
				l0.201-0.087l0.209-0.029l-0.07-0.097l-0.227-0.077l0.009-0.135l0.184-0.029l0.288,0.039l0.218,0.039l0.218,0.145l0.201-0.01
				l-0.079-0.154l-0.201-0.116h-0.262l-0.096-0.077l0.104-0.068l0.288,0.01l0.209,0.029l0.079-0.077l0.183,0.039l0.018,0.184
				l0.018,0.086l0.14,0.078l0.079,0.125h0.174l-0.061-0.135l-0.104-0.087l-0.009-0.203l-0.009-0.251l0.122-0.145l0.105-0.183
				l0.104-0.097l-0.035-0.096l-0.123,0.048l-0.166,0.135l-0.253-0.097l-0.148-0.077l-0.069,0.01l-0.079-0.145l0.253-0.154
				l0.061-0.145l0.009-0.135l0.201,0.01l0.131-0.097l-0.061-0.154l-0.14-0.039l-0.122,0.125l-0.192-0.097l-0.184-0.029l-0.183,0.029
				l-0.14,0.135l-0.384,0.077l-0.297,0.067l-0.349,0.097h-0.489L388.27,549l-0.463-0.009l-0.401,0.077l-0.314,0.058l-0.437-0.029
				c0,0-0.157,0.067-0.209,0.067c-0.052,0-0.296,0-0.296,0l-0.262-0.135l-0.052-0.222l-0.035-0.145l0.07-0.154l0.026-0.145h-0.14
				l-0.043,0.154l-0.026,0.231l-0.07,0.125l-0.026,0.135h-0.218l-0.14-0.106l-0.026-0.174l0.079-0.154l0.113-0.193l0.052-0.212
				l-0.07-0.289l-0.096-0.116l0.052-0.145h0.131l0.218,0.02l0.009-0.212l0.009-0.164l-0.14-0.173l-0.166,0.019l-0.052,0.135
				l0.096,0.097l-0.087,0.096l-0.114,0.087h-0.201l-0.087-0.087l-0.035-0.058l0.122-0.086l0.087-0.068l0.043-0.145l0.079-0.106
				l-0.009-0.097l-0.113-0.116l-0.096-0.067l-0.096,0.173l-0.209,0.116l-0.096,0.164l-0.096,0.231l-0.122,0.145l-0.018,0.212
				l-0.061,0.145l-0.209,0.048l-0.201,0.097l-0.174-0.135l-0.166-0.135l-0.148-0.135l-0.14-0.058l-0.079,0.077l-0.183,0.077
				l-0.175-0.135l0.052-0.183l0.087-0.135l0.079-0.125l-0.105-0.106l0.123-0.106l0.227-0.039l0.218-0.135l0.201-0.048l0.166-0.164
				l0.026-0.135l-0.192,0.02l-0.087-0.097l0.026-0.116l0.105-0.048l-0.087-0.116l-0.166,0.106l-0.113,0.154l-0.201,0.116
				l-0.105-0.135l0.053-0.164l0.096-0.039v-0.106h-0.096l-0.087,0.077l-0.175,0.02l0.026,0.125l0.113,0.203l-0.07,0.183
				l-0.131,0.077l0.009-0.173l-0.061-0.154l-0.043,0.173l-0.035,0.125l-0.157,0.039l-0.052,0.077h-0.166l-0.052-0.125h-0.174
				l-0.184,0.009l-0.113-0.164l-0.087-0.154v-0.164l-0.122-0.106l-0.044-0.077l-0.104,0.067l-0.105,0.087l-0.122-0.019l-0.105,0.135
				l-0.113-0.077l-0.026-0.145h-0.122l-0.096,0.106l-0.131,0.039l-0.07-0.116l0.087-0.164l0.148-0.212l0.105-0.145l0.157-0.058
				l0.096,0.019l0.131,0.135l0.201,0.01l0.087-0.125c0,0,0.122-0.039,0.122-0.077s-0.096-0.116-0.096-0.116l-0.148-0.145
				l-0.079-0.193l-0.201-0.116l-0.087-0.193l0.018-0.145l0.026-0.077l-0.122-0.087l-0.07-0.154l-0.07-0.106h-0.183l-0.131,0.048
				l-0.078-0.087l0.026-0.115l0.114-0.078l0.183-0.048l0.192,0.067l0.209,0.01l0.044-0.048v-0.145l0.087-0.02l0.192,0.02
				l0.262,0.019h0.227l0.079-0.096l-0.209-0.164l-0.096-0.145l0.018-0.164l0.157-0.048l0.113,0.029l0.087-0.097l0.131,0.01
				l0.148,0.106l0.14,0.096l0.236,0.01l0.122-0.077l0.061-0.106l0.157-0.01l0.009-0.212l0.026-0.241l-0.131-0.116l-0.131-0.174
				l0.026-0.279l-0.096-0.164l-0.018-0.174l0.035-0.193l0.113-0.145l0.035-0.193l-0.053-0.184l0.044-0.222l0.166-0.029l0.253-0.116
				l0.323-0.077l0.236-0.106l0.209,0.048l0.236,0.058h0.14l0.157-0.086l0.227-0.097l0.123,0.135h0.148l0.079-0.077l0.104,0.039
				l0.201,0.058l0.079-0.077l0.096-0.029l0.157-0.106l0.087-0.116l-0.07-0.096l-0.253,0.019l-0.096-0.145l-0.157-0.019l-0.07-0.078
				l0.061-0.067l0.123-0.077l0.026-0.087l-0.087-0.048l-0.053-0.02l0.018-0.096l0.096-0.029h0.201l0.052-0.135l0.087-0.087
				l-0.07-0.097l-0.061-0.048l-0.052-0.058l0.052-0.097l0.079-0.096l0.009-0.154l-0.062-0.058l-0.218,0.087l-0.314-0.01
				l-0.166-0.058l-0.209-0.039l-0.262-0.029l-0.131,0.048l-0.157,0.077l-0.079-0.096l-0.104,0.067l-0.096,0.145l-0.227,0.097
				l-0.218,0.106l-0.314,0.077l-0.227,0.058l-0.245-0.106l-0.096-0.125l0.131-0.135l0.009-0.203v-0.203l0.14-0.125l0.035-0.135
				l-0.061-0.164l0.043-0.135l0.035-0.135l0.157-0.02h0.262l0.157,0.116l0.183,0.077l0.079,0.145l-0.052,0.154l0.104,0.125
				l0.044,0.087l0.07-0.116l-0.009-0.193l-0.009-0.212l-0.043-0.154l-0.044-0.125l-0.14-0.067l-0.052,0.106l0.061,0.087l-0.131-0.02
				l-0.087-0.096l-0.009-0.299l-0.052-0.145l0.009-0.145l-0.105-0.068l-0.14-0.019l-0.07-0.116l-0.113-0.087l-0.026-0.174
				l0.053-0.145l0.009-0.193l0.069-0.106l0.062-0.058l0.078-0.039l0.079-0.067l-0.043-0.106l-0.061-0.077l0.096-0.106l0.104-0.048
				v-0.135l0.052-0.106l0.079-0.029l0.087-0.029l-0.087-0.097h-0.14l-0.113,0.01l-0.053,0.154l-0.008,0.087h-0.105l0.018,0.145
				l-0.052,0.106l-0.087,0.125l-0.122,0.039l-0.096,0.077l-0.192,0.01l-0.062-0.048l-0.017-0.145l-0.061-0.145l-0.07-0.106
				l-0.087-0.106l0.104-0.087l0.175-0.048l0.183-0.077l0.192,0.029l0.052-0.116l-0.061-0.106l-0.14-0.067l-0.087-0.087l-0.113-0.116
				l0.008-0.106l0.123,0.029l0.061-0.077l-0.123-0.164l-0.122-0.125l-0.061-0.086l0.227-0.02l0.018-0.125l-0.044-0.125l-0.122-0.039
				l-0.131-0.096l-0.079-0.116l-0.087-0.116l-0.052-0.097l-0.096,0.058l0.009,0.135l-0.07,0.048l0.061,0.125l0.087,0.135
				l-0.043,0.096l-0.096,0.067l-0.122-0.067L382.037,534l-0.035,0.077v0.116l0.052,0.087l-0.061,0.039h-0.157l-0.14,0.106
				l0.053,0.145l0.078,0.039l0.009,0.164l-0.052,0.087l0.009,0.086l-0.148,0.01l-0.018,0.135l0.105,0.039l0.113,0.173l-0.009,0.154
				l-0.113,0.048l-0.175,0.01l-0.148-0.077l-0.096-0.116l-0.035-0.164l0.079-0.231l0.087-0.212l0.07-0.26l0.087-0.193l0.052-0.135
				l-0.026-0.231l0.069-0.135l0.131-0.039l0.096-0.077v-0.135l-0.07-0.077l-0.201-0.01l-0.087-0.058l-0.043-0.097l0.061-0.087
				l0.105-0.01l0.008-0.212l0.105-0.174l0.175-0.183l0.113-0.029l0.079-0.029l0.087-0.203l0.087-0.135l0.131-0.02l0.087,0.106
				l0.035,0.125l-0.009,0.145l0.104,0.173l0.157,0.068l0.192-0.039l0.14,0.058l0.078,0.174v0.154l-0.096,0.154l-0.096,0.096
				l-0.166,0.048l-0.114-0.048l-0.122-0.212l-0.07-0.029l-0.009,0.145l0.043,0.174l0.079,0.086l0.218,0.02l0.184,0.067l0.183-0.039
				l0.043-0.135l0.053-0.097l0.043-0.135l-0.052-0.125l0.061-0.145l0.018-0.145l0.157-0.125l0.104-0.067h0.14l0.104,0.077
				l0.157,0.106l0.114,0.106l0.148-0.009v-0.116l-0.157-0.087l-0.096-0.125l0.044-0.125l-0.079-0.106l-0.192,0.019h-0.174
				l-0.14-0.116l-0.087-0.106l0.043-0.116l0.14-0.135l0.157-0.145l0.157-0.087l0.131-0.058l0.209,0.067l0.201,0.087l0.227,0.116
				l0.184,0.116l0.122,0.116l0.166-0.019l0.087-0.106l0.209-0.029l0.184,0.096l0.157-0.009l0.218,0.077l0.166-0.01l0.166,0.067
				l0.043-0.106l0.061-0.067l0.148,0.058l0.236,0.135l0.174-0.048l0.192,0.01l0.113,0.106l0.166,0.174l0.07-0.097l0.087-0.125
				l0.148-0.096l0.078-0.097l0.166,0.077l0.209,0.116l0.192,0.02l0.14,0.203l-0.026,0.193l0.079,0.145l0.113-0.039l0.105-0.106
				l0.087,0.145l0.044,0.222l-0.14,0.116l0.07,0.116l0.14,0.029l-0.07,0.145l0.148,0.164l0.157,0.029l0.218,0.125l0.018,0.193
				l-0.087,0.058l-0.148-0.174l-0.157-0.077l-0.07-0.067l-0.087-0.125l-0.122,0.077l-0.026,0.135l0.148,0.077l0.201,0.135
				l0.105,0.174l0.113,0.251l-0.009,0.289l-0.009,0.164l0.079-0.135l0.105-0.251l0.043-0.174l0.096-0.183v-0.203l0.104-0.318
				l0.122-0.174l0.114-0.173l0.018-0.222l0.096-0.25l0.061-0.174l0.157-0.029h0.262l0.218,0.039l0.35-0.029l0.192,0.164l0.201,0.202
				l0.175,0.068l0.192,0.154l0.104,0.01l0.279-0.155l0.131-0.173h0.157l0.166,0.183l0.166-0.019l0.174-0.077l0.192,0.019
				l0.192,0.087l0.079,0.203l0.009,0.212l0.14,0.116l0.227,0.096l0.096,0.222l0.14,0.106l0.087-0.125l0.087-0.029l0.175,0.116
				l0.096-0.068l-0.018-0.125l-0.14-0.097l-0.148,0.039l-0.131-0.212l-0.061-0.174l-0.114-0.116l-0.157,0.019l-0.07-0.106
				l0.122-0.193l0.087-0.077l0.14,0.029l0.157,0.058l0.192-0.125l0.209,0.048l0.148,0.019l0.209,0.212l0.148,0.241l0.14,0.212h0.157
				l0.245-0.067l0.14-0.067l0.174-0.068l0.131-0.077l-0.009-0.145l-0.375-0.029l-0.209,0.009h-0.157l-0.113-0.067l-0.096,0.087
				l-0.087-0.048l-0.14-0.154L395,532.717l-0.192-0.212h-0.175l-0.175-0.039l-0.104-0.154l-0.052-0.154l0.026-0.067l0.122,0.087
				l0.123,0.067l0.14,0.019l0.113,0.01l0.018-0.164l-0.192-0.087l-0.123-0.086l-0.209-0.068l-0.201,0.01l-0.104,0.058l-0.157,0.029
				l-0.061,0.087l-0.122,0.116l-0.087-0.106l0.017-0.212l-0.157-0.106l-0.044-0.154l0.131-0.145l0.227-0.067l0.123-0.01l0.078-0.125
				l0.184-0.029l0.104-0.135l0.035-0.145l0.105-0.067l0.148,0.086l0.105-0.067l0.096-0.116l0.14-0.164l0.175-0.231l-0.035-0.203
				l-0.052-0.145l0.131-0.125l0.122-0.058l0.131,0.096l0.035,0.135l0.105-0.058l0.253-0.077l0.245-0.029l0.201-0.174l0.236,0.01
				l0.262-0.058l0.052-0.212l0.096-0.193l0.035-0.203l-0.069-0.135l0.183-0.048l0.104-0.183l0.157-0.164l0.018-0.28l0.201-0.116
				l0.104-0.212l0.079-0.183l0.043-0.241l0.088,0.009l0.044,0.164h0.147l0.053-0.096l0.035-0.154l-0.07-0.125l-0.113-0.193
				l-0.157,0.116l-0.244,0.058l-0.201,0.106l-0.209,0.087l-0.14,0.184l-0.148,0.067l-0.218-0.029l-0.009-0.174l0.122-0.125
				l0.026-0.154l-0.096-0.154l-0.201,0.145l-0.209,0.174l-0.166,0.231l-0.113,0.154l-0.079,0.203l-0.201-0.01l-0.148,0.174
				l-0.113,0.154l-0.105,0.067l-0.061-0.125l0.07-0.212l0.07-0.154l0.288-0.116l0.201-0.203l-0.087-0.174l-0.122,0.077l-0.262,0.01
				l-0.061,0.135l-0.175,0.086l-0.105-0.048v-0.184l-0.087-0.125l-0.096,0.115l-0.297,0.039l-0.244,0.096l-0.279-0.029l-0.201-0.106
				l-0.131-0.038l-0.113,0.067l-0.209-0.01l-0.035-0.097l-0.113-0.116l-0.157-0.183l-0.148-0.029l-0.157-0.01l-0.192-0.154
				l-0.148-0.222l0.079-0.096l0.061-0.135l-0.166-0.086l0.035-0.232l0.14,0.01l0.192,0.01l0.096-0.106l0.026-0.184l0.009-0.125
				l0.079-0.106l0.14,0.01l0.131-0.174l0.183-0.203l0.175-0.183h0.305l0.21,0.048l0.296-0.01l0.14,0.058l0.148,0.009l0.114,0.116
				l0.122,0.048l0.183,0.02l0.114-0.01l0.026-0.125l-0.262-0.145l-0.227-0.039L394.589,525l0.052-0.077l0.183-0.019l0.227,0.029
				l0.122,0.145l0.227,0.164l0.114,0.068l0.096-0.106l-0.122-0.116l-0.201-0.193l-0.131-0.125l-0.131-0.048l-0.122-0.135
				l-0.087-0.106l-0.104-0.106l-0.192-0.039l-0.07-0.106l0.079-0.125l0.114,0.058l0.174-0.019l0.114-0.096l0.061-0.125l0.183,0.019
				l0.07,0.106l0.166-0.02l0.113-0.116l0.192,0.048l0.14,0.029l0.113,0.096h0.14l0.201,0.01l0.009-0.135l-0.14-0.087l-0.174,0.01
				l-0.166-0.087l-0.052-0.184l0.113-0.125l0.148-0.048l0.192,0.048l0.14-0.039l0.053-0.125l-0.184-0.116l-0.087-0.125l-0.174,0.058
				l-0.079,0.145l-0.087,0.058l-0.14-0.125l-0.174-0.077l-0.105-0.086l-0.104-0.135l-0.053-0.125l0.07-0.173l0.062-0.145
				l0.166,0.058l0.245-0.039l0.209-0.145l-0.201-0.086l-0.105-0.097L395.558,522l-0.079-0.203l-0.14-0.173l0.043-0.154l0.131,0.019
				l0.166,0.01l0.043-0.145l-0.052-0.154v-0.184l0.123-0.087l0.157,0.039l0.157-0.039l0.018-0.183l0.052-0.183l0.096,0.039
				l0.104,0.086l0.087-0.125l-0.104-0.164l0.017-0.184l0.105,0.02v-0.164l-0.113-0.135l0.026-0.261l0.148-0.193l0.07-0.193
				l0.096-0.135h0.244l0.184,0.097l0.209,0.019h0.157l0.131-0.164l0.104-0.164l0.131,0.058l0.009,0.203l-0.113,0.135l-0.088,0.096
				l0.026,0.125l0.053,0.097l0.078-0.125l0.088-0.029l0.096-0.116l0.009-0.203l0.157-0.078l0.122-0.038l0.175-0.077l0.078-0.145
				l0.157,0.01l0.113-0.106v-0.299v-0.231l0.157-0.135l0.175-0.019l0.078,0.116l0.141,0.067l0.087,0.058l-0.079,0.154l-0.043,0.106
				l0.087,0.116l0.104-0.029l0.166-0.039l0.062,0.135l0.052,0.145l-0.078,0.154l0.07,0.058l0.113-0.086l0.113-0.02l0.026,0.106
				l-0.131,0.087l-0.079,0.077l-0.053,0.068l0.053,0.077l0.166,0.009l0.122,0.077l0.009-0.173l0.026-0.135l0.053-0.164l0.061-0.173
				l0.035-0.222l-0.053-0.077l-0.183-0.019l-0.07-0.135l-0.07-0.125v-0.154l0.079-0.116l0.131-0.067l0.166,0.048l0.069-0.174v-0.106
				l0.105-0.097l0.131,0.048l-0.018,0.231l-0.079,0.174l-0.087,0.164l-0.062,0.164l0.079,0.154l0.035,0.164l0.2,0.019l0.07-0.058
				l0.183,0.058l0.114,0.125l0.183,0.135l0.148,0.145l0.062,0.26l-0.07,0.251l-0.034,0.203l0.069,0.183l0.104-0.183l0.009-0.251
				l0.062-0.193l0.078-0.154l-0.052-0.241l-0.07-0.222l-0.087-0.155l-0.088-0.154l0.079-0.25l-0.062-0.203l-0.096-0.039
				l-0.078,0.154v0.154l-0.053,0.077l0.104,0.164l0.044,0.145l-0.035,0.125l-0.148-0.106l-0.078-0.145l-0.009-0.135l-0.097,0.039
				l-0.069,0.116l-0.104-0.135l-0.088-0.164l-0.018-0.106l0.088-0.173l0.087-0.097l0.104-0.164l0.141-0.135l0.113,0.019l0.209,0.029
				l0.088-0.241l0.156-0.106l0.141-0.154l0.104-0.058l0.069,0.164l0.009,0.193l0.079,0.183l0.069,0.183l0.035,0.28l-0.079,0.087
				l-0.052,0.125l0.069,0.25l0.148,0.106l0.14,0.029l0.157,0.357l0.131,0.231l0.157,0.193l-0.044,0.318l-0.025,0.251l-0.157,0.125
				l-0.175,0.058l-0.087,0.184l-0.097,0.135l-0.174,0.048l-0.114,0.077l-0.052,0.135l0.061,0.086l0.14-0.039l0.079-0.116l0.2,0.02
				l0.088,0.096l0.061,0.125l-0.113,0.164l-0.235,0.164l-0.184,0.125l-0.113,0.212l-0.088,0.135l-0.008,0.164l0.087,0.125
				l0.131-0.154l0.157-0.222l0.104-0.183l0.175-0.164l0.218-0.164l0.122-0.048l0.053-0.203l0.166-0.039l0.069-0.086l-0.096-0.174
				l-0.192-0.087l-0.052-0.116l0.113-0.164l0.192,0.058l0.078-0.154l0.035-0.203l0.053-0.309l0.043-0.29c0,0-0.122-0.193-0.14-0.231
				s-0.148-0.347-0.148-0.347l-0.104-0.174l-0.14-0.125l-0.148-0.145l-0.018-0.154l0.087-0.212l0.114-0.27l0.069-0.125l0.035-0.222
				l-0.096-0.116l0.018-0.154h0.139l0.166,0.019l0.026-0.135l0.087-0.029l0.141,0.125l0.122,0.058l0.209-0.154l0.122,0.009
				l0.097-0.135l0.096-0.184l0.148-0.009l0.131,0.077l0.113,0.086v0.145l-0.157,0.039l0.131,0.087l0.192-0.01l0.07,0.096l0.2-0.009
				l0.088-0.039v-0.116l-0.097-0.097l-0.157-0.116l-0.191-0.087l-0.131-0.154l-0.079-0.145l-0.104-0.164v-0.135l0.113,0.039
				l0.157,0.039l-0.069-0.145l-0.184-0.087l-0.184-0.067l-0.157-0.145l-0.026-0.135l0.088-0.058l0.227,0.029l0.21,0.135l0.244,0.039
				l0.2,0.029l0.184,0.086l0.201,0.039l0.244,0.145l0.219,0.212l0.025,0.212l0.157,0.106l0.044,0.203l0.235,0.135l0.271,0.164
				l0.166,0.164l0.148-0.097l0.131,0.116l0.166,0.135l0.244,0.039l0.184,0.009l0.201,0.135l0.025,0.212l-0.096,0.222l-0.227,0.164
				l-0.184,0.154l-0.235,0.048l-0.21,0.135l-0.078,0.154l-0.297,0.184L406.042,519l-0.263,0.174l-0.174,0.193l-0.21,0.376
				l-0.157,0.241l-0.087,0.212l-0.079,0.067l-0.026,0.318l0.114,0.106l0.306-0.145l0.297-0.029l0.191,0.164l0.297,0.096l0.235,0.02
				l0.21-0.154l0.157-0.174l0.087-0.183l0.009-0.27l0.009-0.164l0.113-0.125l0.113-0.26l0.132-0.261l0.009-0.396l0.034-0.299
				l0.088-0.097l0.174,0.106l0.184,0.145l0.228,0.096l0.357-0.019l0.341-0.048l0.313,0.01l0.157-0.039l0.148-0.241l0.184-0.058
				l0.148-0.058l0.235-0.203l0.314-0.01l0.227-0.077l0.228-0.096l0.148-0.164l0.157-0.106l0.096-0.184l0.166-0.01l0.227,0.145h0.323
				l0.175-0.039l0.209-0.058l0.332,0.135l0.235,0.096l0.288,0.193l0.104,0.077l0.175,0.02l0.236-0.067l0.156-0.087l0.123-0.087
				L414.015,517.788L414.015,517.788L414.015,517.788L414.015,517.788z"/>
		</g>
	</g>
</g>
<g id="marker">
	<g>
		<g id="XMLID_1_">
			<g>
				<path fill="#3F51B5" d="M407.9,540.07h8.851c-0.9,1.51-2.54,2.51-4.42,2.51C410.44,542.58,408.801,541.58,407.9,540.07z"/>
				<path fill="#3F51B5" d="M416.751,540.07h0.01l-4.43,7.68l-4.44-7.68h0.01c0.9,1.51,2.54,2.51,4.431,2.51
					C414.211,542.58,415.851,541.58,416.751,540.07z"/>
				<path fill="#FFFFFF" d="M412.331,535.69c0.949,0,1.72,0.77,1.72,1.72c0,0.95-0.771,1.73-1.72,1.73
					c-0.95,0-1.721-0.78-1.721-1.73C410.61,536.46,411.381,535.69,412.331,535.69z"/>
				<path fill="#3F51B5" d="M416.751,540.07H407.9h-0.01c-0.46-0.78-0.73-1.69-0.73-2.66c0-2.85,2.311-5.16,5.171-5.16
					c2.85,0,5.159,2.31,5.159,5.16c0,0.97-0.27,1.88-0.729,2.66H416.751z M414.051,537.41c0-0.95-0.771-1.72-1.72-1.72
					c-0.95,0-1.721,0.77-1.721,1.72c0,0.95,0.771,1.73,1.721,1.73C413.28,539.14,414.051,538.36,414.051,537.41z"/>
			</g>
			<g>
			</g>
		</g>
	</g>
</g>
</svg>
